
<svg xmlns="http://www.w3.org/2000/svg" viewBox="0 0 48 48"><path fill="#4E64DF" d="M23.63 42.575c-3.395 0-6.407-.431-8.953-1.279a15.04 15.04 0 0 1-2.346-.99 30.062 30.062 0 0 1-3.25.205c-2.316 0-3.798-.408-4.534-1.25l-.151-.172a1.6 1.6 0 0 1-.39-1.198l.022-.228c1.197-13.171 3.179-19.53 3.83-21.619l.07-.23c.395-1.283 1.657-2.425 4.221-3.817a36.43 36.43 0 0 1 1.296-.666c-.14-.864-.084-1.87.611-2.842C15.32 6.721 18.133 6 23.766 6c4.995 0 8.025 1.057 9.26 3.23.395.694.55 1.414.551 2.087l.083.04c3.49 1.671 6.012 2.879 6.959 8.02.858 4.659 2.761 17.379 2.842 17.918l.07.46a1.6 1.6 0 0 1-1.131 1.772l-.445.13c-1.69.498-3.332.75-4.882.75-.833 0-1.51-.074-2.017-.16-.535.28-1.31.634-2.341.984-2.631.892-5.687 1.344-9.086 1.344Z"/><path fill="#FF6929" d="M15.999 12.504s-5.539 2.339-6.031 3.939-2.584 7.877-3.816 21.416c0 0 .861.984 6.647.246 0 0 3.2 2.339 10.83 2.339 7.631 0 11.078-2.461 11.078-2.461s2.461.861 6.646-.37c0 0-1.969-13.169-2.83-17.846-.862-4.678-2.954-5.047-7.384-7.262 0 0 2.598-4.369-7.371-4.369-9.97 0-8.384 2.4-7.768 4.37l-.001-.002Z"/><path fill="#fff" d="M20.75 16.064c-.265.45-.565.961-.593 1.581-.036.818.407 1.479.798 2.063.336.503.654.979.618 1.463-.024.321-.206.642-.4.984l-.11.197c-.251.456-.559 1.143-.342 1.852a.513.513 0 1 0 .982-.301c-.078-.252.006-.598.258-1.055l.106-.187c.229-.405.489-.864.53-1.414.063-.836-.389-1.512-.788-2.11-.332-.497-.646-.966-.625-1.446.016-.366.228-.724.452-1.106.07-.118.14-.241.208-.365-.31-.09-.65-.19-1.007-.301a52.12 52.12 0 0 0-.085.146l-.001-.001Zm5.555.521c.224.382.436.742.454 1.106.021.48-.292.949-.626 1.446-.398.596-.85 1.272-.789 2.11.041.552.301 1.01.532 1.416l.104.185c.252.457.336.803.259 1.055a.514.514 0 0 0 .981.301c.217-.71-.09-1.396-.341-1.852l-.111-.196c-.193-.341-.376-.664-.4-.985-.036-.484.281-.959.619-1.463.39-.584.833-1.247.797-2.063-.028-.62-.328-1.13-.593-1.581-.04-.068-.079-.133-.115-.197-.35.114-.687.216-1.004.304.076.142.156.281.235.414h-.002Z"/><path fill="#151523" d="m30.816 31.41-.393-.054c-.084-.012-2.047-.31-2.202-2.784l-.03-.485-8.842.072-.029.477c-.155 2.473-2.117 2.773-2.197 2.784l-.41.05-.477 5.066.39.127c.171.056 2.853.905 6.837.905 2.181 0 4.754-.255 7.518-1.033l.422-.119-.539-4.61-.05-.395h.002Zm-13.48 4.39.325-3.446c.967-.278 2.327-1.173 2.632-3.174l6.956-.058c.308 2.002 1.674 2.894 2.64 3.17l.394 3.372c-6.239 1.644-11.5.514-12.946.136h-.001Zm13.843-23.276c-1.395 1.317-3.607 2.148-5.278 2.621.127-.076.255-.154.383-.236 2.188-1.384 2.44-2.177 2.44-2.654 0-1.696-3.647-1.875-4.777-1.89a17.133 17.133 0 0 0-1.899.046c-1.445.12-2.387.414-2.876.902-.27.27-.405.602-.392.96.037.984 1.221 1.95 2.424 2.682-1.915-.6-4.16-1.467-5.27-2.427a34.44 34.44 0 0 0-1.007.456c1.185 1.26 3.844 2.285 5.908 2.932.357.112.696.212 1.006.301a35.63 35.63 0 0 0 1.754.458l.096.021.097-.015c.095-.014 1.03-.164 2.283-.513.317-.088.653-.19 1.004-.304 1.737-.57 3.769-1.483 5.078-2.865a64.936 64.936 0 0 1-.973-.478l-.001.003Zm-11.374-.288c-.001-.052.008-.11.091-.193.479-.476 2.172-.662 3.484-.662.185 0 .364.004.53.011h.017c.01 0 1.052.015 2.07.187 1.388.233 1.702.574 1.702.676 0 .516-1.802 1.84-3.904 2.882-2.442-1.058-3.966-2.317-3.988-2.902l-.002.001Zm-5.677 8.176a.512.512 0 1 0-1.021-.101c-.4 4.006-.384 10.63-.315 15.078-.653.167-3.83.875-6.361-.342-.038.352-.075.71-.112 1.074 1.192.499 2.454.656 3.57.656a13.22 13.22 0 0 0 2.92-.334c.012.633.024 1.204.036 1.694.118.079.458.294 1.042.562-.09-3.463-.278-13.108.24-18.287h.001Zm26.793 14.351c-.856.282-3.792 1.125-6.314.378 0-4.456-.076-10.909-.468-14.83a.512.512 0 1 0-1.022.101c.511 5.11.48 14.593.447 18.19.53-.246.87-.447 1.03-.55.005-.533.009-1.157.01-1.848a9.26 9.26 0 0 0 2.272.268c1.807 0 3.435-.437 4.2-.68l-.156-1.03h.001Z"/></svg>
