<?xml version="1.0" encoding="utf-8"?>
<!-- Uploaded to: SVG Repo, www.svgrepo.com, Generator: SVG Repo Mixer Tools -->
<svg width="800px" height="800px" viewBox="0 0 1024 1024" class="icon"  version="1.1" xmlns="http://www.w3.org/2000/svg"><path d="M958.383566 700.20168l27.589273 81.71284-115.536075 66.719366-28.356529-82.000562 113.266273-65.408635z" fill="#FF4893" /><path d="M711.103119 387.800318l-0.191814 0.063939v541.49143h-204.729668V241.254285l6.937279 8.855421 100.542599-128.5155 1.694359 1.31073c63.778215-36.860292 137.019263 12.819581 173.879554 76.629765l169.148138 500.666979-3.037058 1.023009-113.266273 65.408635-130.977116-378.833006z" fill="#5FCEFF" /><path d="M635.656208 93.461459l-21.994693 28.132747-100.542599 128.5155-6.937279-8.855421v-0.031969l-93.60532-119.62811-22.026662-28.132747z" fill="#FFB578" /><path d="M314.623209 387.608504l-129.730324 376.627143-113.969592-65.760295-2.173894-0.735288 168.284974-498.205363c36.860292-63.810184 110.101339-113.490057 173.879554-76.629765l1.66239-1.31073 93.60532 119.62811v688.133371h-190.85511v-541.49143l-0.703318-0.255753z" fill="#5FCEFF" /><path d="M184.892885 764.235647l-29.059848 84.398239-115.536075-66.719366 28.452437-84.174456 2.173894 0.735288z" fill="#FF4893" /><path d="M40.300159 804.299235a22.381518 22.381518 0 0 1-21.205057-29.548974l196.73741-582.376623c0.473142-1.400244 1.08375-2.749337 1.822235-4.031295 21.265799-36.812338 52.62422-67.719996 86.03825-84.797852 40.533533-20.715931 82.585595-20.719128 118.416484-0.00959a22.378321 22.378321 0 0 1-22.394305 38.749661c-22.880235-13.222391-48.33078-12.85155-75.651513 1.115719-25.38341 12.976229-49.5488 36.764385-66.55952 65.46618L61.498823 789.07878a22.387912 22.387912 0 0 1-21.198664 15.220455z" fill="#4F46A3" /><path d="M155.833037 871.018601a22.250445 22.250445 0 0 1-7.285742-1.227611 22.375124 22.375124 0 0 1-13.874559-28.442846l159.560625-463.228048a22.378321 22.378321 0 0 1 42.253467 14.760101l-0.735287 2.109956-158.758203 460.932672a22.394306 22.394306 0 0 1-21.160301 15.095776z" fill="#4F46A3" /><path d="M155.810658 871.015404a22.288808 22.288808 0 0 1-11.169979-3.001892l-115.536074-66.719366a22.378321 22.378321 0 1 1 22.381518-38.759252l115.536074 66.719366a22.378321 22.378321 0 0 1-11.211539 41.761144zM985.969642 804.299235a22.378321 22.378321 0 0 1-21.198664-15.226849L768.762461 208.860067c-17.010721-28.704992-41.172914-52.48995-66.556323-65.46618-27.32393-13.967269-52.777672-14.33811-75.651513-1.115719a22.371927 22.371927 0 0 1-30.571983-8.177678 22.378321 22.378321 0 0 1 8.177678-30.571983c35.834086-20.712735 77.892542-20.703144 118.416484 0.00959 33.41403 17.077856 64.775649 47.988711 86.03825 84.797853 0.738485 1.278761 1.349093 2.631051 1.822235 4.031294l196.737411 582.383017a22.371927 22.371927 0 0 1-14.043995 28.359726 22.247248 22.247248 0 0 1-7.161063 1.189248zM870.436764 871.018601a22.378321 22.378321 0 0 1-21.147513-15.070201l-159.336842-460.836764a24.248509 24.248509 0 0 1-0.169436-0.514702l-0.195011-0.607411a22.371927 22.371927 0 0 1 14.52353-28.116762 22.378321 22.378321 0 0 1 28.116762 14.52353l0.111891 0.348463 159.244133 460.571421a22.375124 22.375124 0 0 1-13.833 28.462027 22.186507 22.186507 0 0 1-7.314514 1.240399z" fill="#4F46A3" /><path d="M870.459143 871.015404a22.378321 22.378321 0 0 1-11.211539-41.761144l115.536074-66.719366a22.378321 22.378321 0 0 1 30.571984 8.187269 22.378321 22.378321 0 0 1-8.187269 30.571983l-115.536074 66.719366a22.31758 22.31758 0 0 1-11.173176 3.001892zM710.911305 951.734008H315.326527a22.378321 22.378321 0 0 1-22.378321-22.378321v-541.49143a22.378321 22.378321 0 1 1 44.756642 0v519.113109h350.828136v-519.113109a22.378321 22.378321 0 1 1 44.756642 0v541.49143a22.378321 22.378321 0 0 1-22.378321 22.378321zM513.118916 272.488027a22.378321 22.378321 0 0 1-17.618132-8.577291l-6.93728-8.855421a21.441628 21.441628 0 0 1-0.581836-0.780044L372.928326 107.256096a22.378321 22.378321 0 0 1 17.621329-36.176155h245.106553a22.381518 22.381518 0 0 1 17.63092 36.163367l-122.540489 156.651444a22.371927 22.371927 0 0 1-17.618132 8.590078l-0.009591 0.003197z m-76.629765-156.648247l76.639356 97.943517 76.623371-97.943517h-153.262727z" fill="#4F46A3" /><path d="M506.181637 951.734008a22.378321 22.378321 0 0 1-22.378321-22.378321V241.254285a22.391109 22.391109 0 0 1 22.378321-22.394306c12.359227 0 22.378321 9.999913 22.378321 22.362337v688.133371a22.378321 22.378321 0 0 1-22.378321 22.378321zM455.334894 296.467997a22.339958 22.339958 0 0 1-17.64051-8.590079l-90.440386-115.568043a22.378321 22.378321 0 0 1 35.249052-27.582879l90.440386 115.568043a22.378321 22.378321 0 0 1-17.608542 36.172958zM565.180481 296.467997a22.378321 22.378321 0 0 1-17.608541-36.172958l90.440386-115.568043a22.378321 22.378321 0 1 1 35.245855 27.582879l-90.440386 115.568043a22.343155 22.343155 0 0 1-17.637314 8.590079zM186.408217 787.512297a22.282414 22.282414 0 0 1-11.233917-3.040254l-1.534514-0.891936-113.89926-65.718735a22.378321 22.378321 0 0 1-8.196859-30.568787 22.375124 22.375124 0 0 1 30.568787-8.200056l115.574437 66.696987a22.378321 22.378321 0 0 1-11.278674 41.722781zM839.864781 790.293603a22.378321 22.378321 0 0 1-11.112435-41.818688l2.237832-1.275564 113.160776-65.347895a22.378321 22.378321 0 0 1 30.571983 8.187269 22.378321 22.378321 0 0 1-8.187268 30.571983l-115.606407 66.744941a22.336761 22.336761 0 0 1-11.064481 2.937954zM455.31891 380.031844a22.378321 22.378321 0 0 1-22.378321-22.378321v-9.302988a22.378321 22.378321 0 1 1 44.756642 0v9.302988a22.378321 22.378321 0 0 1-22.378321 22.378321zM455.31891 499.276326a22.378321 22.378321 0 0 1-22.378321-22.378321v-9.23905a22.378321 22.378321 0 1 1 44.756642 0v9.23905a22.378321 22.378321 0 0 1-22.378321 22.378321zM455.31891 618.584746a22.378321 22.378321 0 0 1-22.378321-22.378321v-9.302988a22.378321 22.378321 0 1 1 44.756642 0v9.302988a22.378321 22.378321 0 0 1-22.378321 22.378321zM455.31891 737.829228a22.378321 22.378321 0 0 1-22.378321-22.378321v-9.23905a22.378321 22.378321 0 1 1 44.756642 0v9.23905a22.378321 22.378321 0 0 1-22.378321 22.378321zM455.31891 857.137648a22.378321 22.378321 0 0 1-22.378321-22.378321v-9.302988a22.378321 22.378321 0 1 1 44.756642 0v9.302988a22.378321 22.378321 0 0 1-22.378321 22.378321z" fill="#4F46A3" /></svg>