
<svg xmlns="http://www.w3.org/2000/svg" viewBox="0 0 48 48"><path fill="#4E64DF" d="M23.627 41.568c-2.043 0-3.977-.167-5.748-.497-2.796-.52-4.608-1.338-5.564-1.87-.13.015-.26.03-.388.043-1.05.11-2.01.167-2.847.167-2.332 0-3.825-.427-4.562-1.304l-.143-.17a1.604 1.604 0 0 1-.37-1.168l.02-.22c.051-.6.106-1.19.16-1.768L4.3 33.62c1.367-13.561 3.393-20.697 3.62-21.467.73-2.464 3.338-4.361 7.544-5.49a31.41 31.41 0 0 1 2.444-.54l.27-.048c.457-.082.926.04 1.286.334l.075.06c.181.104 1.341.716 3.582.716.229 0 .463-.006.7-.018 2.532-.134 3.794-.754 3.945-.834l.107-.07c.366-.24.813-.32 1.238-.222l.088.02c.378.062.77.135 1.16.218 2.688.572 4.894 1.57 6.558 2.968 1.978 1.66 3.223 3.885 3.705 6.61.629 3.572 1.825 12.528 2.482 17.548l.145 1.118c.137 1.05.218 1.684.218 1.684l.057.445a1.601 1.601 0 0 1-1.117 1.733l-.43.132c-1.697.522-3.347.786-4.904.786-.532 0-1.05-.032-1.54-.094a9.767 9.767 0 0 1-.467-.07c-1.032.56-2.93 1.4-5.774 1.932a31.079 31.079 0 0 1-5.664.497Z"/><path fill="#25D454" d="m41.133 34.797-.146-1.116c-.61-4.664-1.836-13.873-2.468-17.454-.83-4.707-4.234-6.934-8.605-7.864-.347-.074-.699-.14-1.058-.2 0 0-.02.013-.056.033-.303.167-1.869.94-4.869 1.097-3.841.203-5.62-1.08-5.62-1.08l-.013.003a29.925 29.925 0 0 0-2.283.504c-2.67.717-5.448 1.996-6.05 4.033-.458 1.554-2.298 8.719-3.543 21.079a187.833 187.833 0 0 0-.274 2.901s.752.895 5.554.388c.344-.036.707-.078 1.093-.13l.012.009c.155.113 1.841 1.299 5.46 1.972 1.463.272 3.239.461 5.358.461 2.118 0 3.809-.188 5.271-.461 3.767-.703 5.615-1.975 5.79-2.1l.014-.01s.382.138 1.096.229c1.106.14 3.01.165 5.55-.615l-.217-1.68.004.001Z"/><path fill="#151523" d="m41.133 34.797-.146-1.116c-.716.276-3.07 1.068-5.37.61-.316-4.83-.874-12.96-1.304-17.462a.548.548 0 0 0-1.091.104c.421 4.398.962 12.275 1.282 17.128l-.06.02-.033.01c-5.55 2.473-11.024 2.332-14.637 1.777-3.936-.604-6.588-1.815-6.614-1.827l-.143-.066c.338-4.86.904-12.67 1.322-17.042a.548.548 0 1 0-1.09-.104c-.431 4.494-1.014 12.603-1.351 17.434-1.192.278-3.447.588-5.387-.395a.62.62 0 0 0-.09-.035l-.113 1.15c2.008.9 4.172.7 5.511.424l-.117 1.716c.344-.036.707-.08 1.093-.131l.012.01.128-1.863c.745.317 3.19 1.273 6.635 1.806 1.316.204 2.87.355 4.581.355 3.11 0 6.744-.501 10.428-2.09l.108 1.663a.906.906 0 0 0 .015-.01s.381.138 1.096.229l-.108-1.676c.48.077.956.112 1.419.112 1.724 0 3.253-.455 4.022-.732l.002.001ZM23.488 12.964c4.295 0 6.024-3.592 6.426-4.6a23.17 23.17 0 0 0-1.058-.199l-.056.032c-.458 1.042-1.949 3.67-5.31 3.67-3.583 0-4.879-2.798-5.19-3.65a29.91 29.91 0 0 0-1.084.215c.286.823 1.822 4.53 6.274 4.53l-.002.002Z"/><path fill="#fff" d="M28.151 20.212c-.34-.276-.945-.473-1.706-.684.665-.427 1.284-1.06 1.096-1.928-.325-1.496-2.053-2.044-2.575-2.176-.836-.212-1.598-.087-2.144.353-.521.42-.795 1.095-.768 1.899v.01c-.51-.434-1.09-.766-1.673-.766h-.009c-.457.003-.863.207-1.174.592-.868 1.075-1.242 2.247-.999 3.136.157.579.553 1.001 1.145 1.223.358.134.698.18 1.015.174a2.7 2.7 0 0 0-.281.98 1.872 1.872 0 0 0 .498 1.43c.758.828 1.5 1.005 1.997 1.005.116 0 .218-.01.303-.023A1.857 1.857 0 0 0 24.29 24.4c.067-.144.12-.323.163-.523.153.387.303.841.41 1.344.42 1.965.01 3.685-1.217 5.115a.547.547 0 1 0 .83.713c1.451-1.688 1.951-3.795 1.45-6.095a9.214 9.214 0 0 0-.233-.861c.271.057.551.044.829-.041 1.095-.34 1.959-1.238 2.15-2.235.126-.647-.066-1.23-.524-1.601l.003-.003Zm-.55 1.395c-.1.508-.611 1.15-1.4 1.396a.557.557 0 0 1-.477-.06c-.547-.315-1-1.327-1.136-1.911a.561.561 0 0 0-.626-.433.562.562 0 0 0-.488.585c.061 1.31-.007 2.39-.175 2.75a.763.763 0 0 1-.587.42c-.42.065-.89-.162-1.326-.638a.77.77 0 0 1-.213-.61c.042-.577.58-1.266.969-1.594a.55.55 0 0 0-.059-.957.55.55 0 0 0-.525.029l-.05.024c-.453.212-1.073.501-1.777.239-.259-.098-.41-.252-.473-.486-.145-.534.165-1.382.793-2.16.13-.162.24-.185.328-.185h.003c.401 0 1.082.512 1.734 1.304a.636.636 0 0 0 .751.181.639.639 0 0 0 .38-.677c-.052-.39-.085-.79-.099-1.184-.01-.32.043-.755.36-1.01.273-.218.694-.27 1.189-.145.722.183 1.62.646 1.773 1.347.043.199-.104.627-1.575 1.26a.59.59 0 0 0-.377.59c.034.471.415.574 1.334.82.514.138 1.374.37 1.608.56.175.142.172.375.14.545Z"/></svg>
