
<svg xmlns="http://www.w3.org/2000/svg" viewBox="0 0 48 48"><path fill="#4E64DF" d="M23.933 41.157c-6.176 0-10.364-1.58-10.539-1.647l-.341-.131a1.602 1.602 0 0 1-1.027-1.488l-.05-14.52-2.222 1.079a1.601 1.601 0 0 1-2.161-.79l-.224-.504c-1.622-3.646-3.06-7.181-3.075-7.216l-.176-.43a1.6 1.6 0 0 1 .684-1.99l.404-.232c6.757-3.892 11.899-5.979 12.115-6.065l.264-.107a1.6 1.6 0 0 1 1.501.163l.236.161c1.518 1.036 3.162 1.563 4.886 1.563 2.62 0 4.616-1.21 4.737-1.284l.17-.115a1.601 1.601 0 0 1 1.298-.221l.188.05c4.433 1.055 11.481 4.374 11.779 4.515l.414.196a1.6 1.6 0 0 1 .848 1.908l-2.624 8.715a1.601 1.601 0 0 1-1.996 1.07l-3.166-.958.52 14.868a1.598 1.598 0 0 1-1.11 1.578l-.384.124a35.765 35.765 0 0 1-10.952 1.71l.003-.002Z"/><path fill="#FB9DEF" d="M6.27 15.136s1.423 3.495 3.048 7.154l4.779-2.32.061 17.549s8.999 3.455 20.075-.102l-.61-17.446 5.511 1.67 2.337-7.763s-7.093-3.354-11.36-4.37c0 0-5.894 3.862-11.992-.305 0 0-5.14 2.073-11.848 5.934Z"/><path fill="#151523" d="M19.793 14.265c.964 1.027 2.285 1.548 3.924 1.548 5.637 0 6.304-5.714 6.355-6.282a9.514 9.514 0 0 1-1.118.577c-.277 1.45-1.332 4.679-5.237 4.679-1.343 0-2.41-.41-3.17-1.22-1.056-1.12-1.329-2.77-1.394-3.732a12.012 12.012 0 0 1-1.034-.632l-.014.006c-.01.758.077 3.342 1.69 5.058l-.002-.002Z"/><path fill="#fff" d="m26.818 21.51-1.832.149 1.398-2.503a.755.755 0 0 0-.042-.805.754.754 0 0 0-.742-.313l-2.623.425a.752.752 0 0 0-.579.459L20.23 24.14a.752.752 0 0 0 .09.743c.16.216.417.33.685.304l1.656-.16-.726 4.352a.75.75 0 0 0 .492.838.75.75 0 0 0 .913-.333l4.197-7.236a.756.756 0 0 0-.717-1.136l-.002-.001Zm-3.628 6.583.541-3.242a.754.754 0 0 0-.194-.643.755.755 0 0 0-.627-.237l-1.558.15 1.938-4.668 1.927-.311-1.372 2.457a.756.756 0 0 0 .724 1.125l1.821-.148-3.2 5.516v.002Z"/><path fill="#151523" d="M7.625 14.368c.53 1.644 1.613 4.697 3.07 7.254l.927-.45c-1.47-2.565-2.58-5.75-3.079-7.31-.3.165-.608.334-.918.508v-.002Zm31.605-1.507c-.445 1.66-1.39 5.092-2.354 8.094l.983.297c.94-2.925 1.86-6.25 2.322-7.97-.281-.126-.6-.268-.95-.422v.002ZM14.249 34.733a.528.528 0 0 0-.101-.022l.004 1.07c3.366 1.095 6.985 1.56 10.371 1.56 3.714 0 7.146-.557 9.655-1.445l-.037-1.081c-4.62 1.748-12.848 2.277-19.892-.081Z"/></svg>
