<?xml version="1.0" encoding="utf-8"?>
<!-- Generator: Adobe Illustrator 25.3.1, SVG Export Plug-In . SVG Version: 6.00 Build 0)  -->
<svg version="1.1" id="Camada_1" xmlns="http://www.w3.org/2000/svg" xmlns:xlink="http://www.w3.org/1999/xlink" x="0px" y="0px"
	 viewBox="0 0 800 800" style="enable-background:new 0 0 800 800;" xml:space="preserve">
<style type="text/css">
	.st0{fill:#FFFFFF;}
</style>
<g>
	<path class="st0" d="M505.2,679.4h-5.5c-66.6,0-133.1,0-199.7,0c-8.3,0-13.9-2.8-16.6-8.3C214.1,582.3,142,496.4,72.6,407.6
		c-2.8-5.5-5.5-8.3-5.5-13.9c0-86,0-169.2,0-255.1c0-2.8,0-5.5,2.8-5.5h2.8C216.8,313.4,361,493.6,502.5,673.9c0,0,0,2.8,2.8,2.8
		L505.2,679.4L505.2,679.4z"/>
	<path class="st0" d="M727.1,407.6c-19.4,25-41.6,49.9-61,77.6c-5.5,5.5-11.1,8.3-16.6,8.3c-66.6,0-133.1,0-196.9,0h-2.8
		c-2.8,0-5.5-2.8-2.8-5.5c0,0,0-2.8,2.8-2.8c66.6-83.2,130.3-163.6,196.9-246.8c27.7-33.3,55.5-69.3,80.4-102.6
		c0-2.8,2.8-2.8,5.5-2.8h2.8c0,2.8,0,2.8,0,5.5c0,83.2,0,169.2,0,252.3C732.6,399.3,729.9,404.9,727.1,407.6L727.1,407.6z"/>
</g>
</svg>
