<?xml version="1.0" encoding="utf-8"?>
<!-- Generator: Adobe Illustrator 25.3.1, SVG Export Plug-In . SVG Version: 6.00 Build 0)  -->
<svg version="1.1" id="Layer_1" xmlns="http://www.w3.org/2000/svg" xmlns:xlink="http://www.w3.org/1999/xlink" x="0px" y="0px"
	 viewBox="0 0 132 24" style="enable-background:new 0 0 132 24;" xml:space="preserve">
<g>
	<path d="M32.2,4.9c0.4,0.4,0.5,0.8,0.5,1.3s-0.2,0.9-0.5,1.3C31.9,7.9,31.4,8,30.9,8H19.6v11.2c0,0.5-0.2,0.9-0.5,1.3
		c-0.4,0.4-0.8,0.5-1.3,0.5c-0.5,0-0.9-0.2-1.3-0.5c-0.4-0.4-0.5-0.8-0.5-1.3V8H4.5C4,8,3.6,7.8,3.3,7.5C2.9,7.1,2.8,6.7,2.8,6.2
		c0-0.5,0.2-0.9,0.5-1.3c0.4-0.4,0.8-0.5,1.3-0.5h26.3C31.4,4.4,31.9,4.6,32.2,4.9z"/>
	<path d="M35,20.4c-0.4,0.5-0.9,0.7-1.4,0.7c-0.5,0-0.9-0.2-1.3-0.5c-0.4-0.4-0.5-0.8-0.5-1.3c0-0.5,0.1-0.8,0.4-1.1l9.3-12.5
		c0.4-0.6,1-1.1,1.7-1.4c0.7-0.4,1.5-0.6,2.3-0.6c0.8,0,1.5,0.2,2.2,0.5c0.7,0.3,1.2,0.8,1.7,1.4l9.3,12.4c0.2,0.2,0.3,0.4,0.4,0.6
		c0.1,0.2,0.2,0.5,0.2,0.7c0,0.5-0.2,0.9-0.5,1.3c-0.4,0.4-0.8,0.5-1.3,0.5c-0.6,0-1.1-0.2-1.5-0.7L47,8.4c-0.2-0.2-0.4-0.4-0.7-0.7
		c-0.3-0.2-0.5-0.4-0.8-0.4c-0.3,0-0.6,0.1-0.8,0.4C44.4,8,44.2,8.2,44,8.4L35,20.4z"/>
	<path d="M89.7,15.9c0.7,0.5,1.4,1,2.2,1.6c0.3,0.2,0.5,0.4,0.7,0.7s0.3,0.6,0.3,0.9c0,0.5-0.2,0.9-0.5,1.3C92,20.9,91.5,21,91,21
		c-0.4,0-0.9-0.2-1.3-0.5c-1-0.8-2.1-1.5-3.2-2.2c-1.1-0.7-2.2-1.4-3.4-1.9c-1.2-0.6-2.4-1-3.7-1.3c-1.3-0.3-2.6-0.5-4-0.5h-7.6
		c-0.3,0.1-0.6,0.2-0.8,0.5c-0.2,0.3-0.3,0.6-0.3,1v3.2c0,0.5-0.2,0.9-0.6,1.3c-0.4,0.4-0.8,0.5-1.3,0.5c-0.5,0-0.9-0.2-1.3-0.5
		c-0.4-0.4-0.5-0.8-0.5-1.3v-3.7c0-0.6,0.1-1.2,0.4-1.8c0.2-0.6,0.6-1.1,1-1.5s0.9-0.8,1.5-1c0.6-0.2,1.2-0.4,1.8-0.4h20.3
		c0.4,0,0.7-0.1,1-0.4s0.4-0.6,0.4-1c0-0.4-0.1-0.7-0.4-1c-0.3-0.3-0.6-0.4-1-0.4H64.8c-0.5,0-0.9-0.2-1.3-0.5S63,6.7,63,6.2
		s0.2-0.9,0.5-1.3c0.4-0.4,0.8-0.5,1.3-0.5h22.9c0.7,0,1.4,0.1,2,0.4c0.6,0.3,1.2,0.6,1.6,1.1c0.5,0.5,0.8,1,1.1,1.6
		c0.3,0.6,0.4,1.3,0.4,2c0,0.7-0.1,1.4-0.4,2s-0.6,1.1-1.1,1.6s-1,0.8-1.6,1.1c-0.6,0.3-1.3,0.4-2,0.4h-0.2
		C88.2,15,88.9,15.4,89.7,15.9z"/>
	<path d="M127.8,12.7c0,1-0.2,1.9-0.5,2.9c-0.3,1-0.8,1.9-1.4,2.7s-1.4,1.5-2.2,2c-0.9,0.5-1.8,0.8-2.9,0.8h-17.4
		c-1-0.1-2-0.3-2.8-0.9c-0.8-0.5-1.5-1.2-2.1-2s-1-1.7-1.3-2.6c-0.3-1-0.5-1.9-0.5-2.9c0-1,0.2-1.9,0.5-2.9s0.8-1.9,1.4-2.7
		c0.6-0.8,1.4-1.5,2.2-2c0.9-0.5,1.8-0.8,2.9-0.8h17.4c1,0.1,2,0.3,2.8,0.9c0.8,0.5,1.5,1.2,2.1,2c0.6,0.8,1,1.7,1.3,2.6
		C127.7,10.8,127.8,11.8,127.8,12.7z M122.1,16.9c0.6-0.3,1-0.7,1.3-1.2c0.3-0.5,0.5-1,0.6-1.5c0.1-0.5,0.2-1.1,0.2-1.5
		c0-0.5-0.1-1-0.2-1.5c-0.1-0.5-0.3-1.1-0.6-1.5c-0.3-0.5-0.8-0.8-1.3-1.2C121.6,8.2,120.8,8,120,8h-15.4c-0.9,0-1.6,0.2-2.2,0.5
		c-0.5,0.3-1,0.7-1.3,1.2c-0.3,0.5-0.5,1-0.6,1.5c-0.1,0.5-0.2,1.1-0.2,1.5c0,0.5,0.1,1,0.2,1.5c0.1,0.5,0.3,1.1,0.6,1.5
		c0.3,0.5,0.8,0.8,1.3,1.2c0.5,0.3,1.3,0.5,2.2,0.5H120C120.8,17.4,121.6,17.2,122.1,16.9z"/>
</g>
</svg>
