<?xml version="1.0" encoding="utf-8"?>
<!-- Generator: Adobe Illustrator 25.3.1, SVG Export Plug-In . SVG Version: 6.00 Build 0)  -->
<svg version="1.1" id="Layer_1" xmlns="http://www.w3.org/2000/svg" xmlns:xlink="http://www.w3.org/1999/xlink" x="0px" y="0px"
	 viewBox="0 0 40 40" style="enable-background:new 0 0 40 40;" xml:space="preserve">
<style type="text/css">
	.st0{fill:#6ABE5A;}
</style>
<path class="st0" d="M21,37.4c-9.6-0.1-17.4-7.9-17.3-17.4c0.1-9.5,7.9-17.3,17.4-17.3c9.5,0.1,17.4,7.9,17.3,17.4
	C38.3,29.6,30.5,37.4,21,37.4z M18.2,23.7c-1.6-1.6-3.1-3.1-4.6-4.6c-0.9-0.9-1.3-0.9-2.2,0c-0.3,0.3-0.6,0.6-0.9,0.9
	c-0.9,0.9-0.9,1.4,0,2.3c2.1,2.1,4.3,4.3,6.4,6.4c1.1,1.1,1.5,1.1,2.6,0c3.8-3.8,7.6-7.6,11.4-11.4c1.7-1.7,1.7-1.8,0-3.5
	c-1.3-1.3-1.6-1.3-2.8,0C24.9,17,21.6,20.3,18.2,23.7z"/>
</svg>
