<?xml version="1.0" encoding="utf-8"?>
<!-- Generator: Adobe Illustrator 25.3.1, SVG Export Plug-In . SVG Version: 6.00 Build 0)  -->
<svg version="1.1" id="Layer_1" xmlns="http://www.w3.org/2000/svg" xmlns:xlink="http://www.w3.org/1999/xlink" x="0px" y="0px"
	 viewBox="0 0 40 40" style="enable-background:new 0 0 40 40;" xml:space="preserve">
<style type="text/css">
	.st0{fill:#4361AD;}
</style>
<path class="st0" d="M19.9,35.9c-4.7,0-9.4,0-14.1,0c-2.6,0-3.7-1.8-2.5-4.1C8,23.2,12.8,14.6,17.5,6c0.9-1.7,2.1-2.3,3.5-1.7
	c0.6,0.3,1.2,0.8,1.5,1.4c2.6,4.7,5.2,9.4,7.8,14.2c2.1,3.9,4.2,7.8,6.4,11.7c1.5,2.5-0.3,4.5-2.6,4.4
	C29.4,35.8,24.6,35.9,19.9,35.9z M21.3,26.5c0-3.4,0-6.6,0-9.9c-0.8,0-1.8,0-2.5,0c0,3.3,0,6.6,0,9.9C19.7,26.5,20.4,26.5,21.3,26.5
	z M21.6,30.6c0-0.8-0.7-1.5-1.6-1.5c-0.9,0-1.5,0.6-1.5,1.5c0,0.9,0.6,1.5,1.5,1.5C20.9,32.1,21.6,31.4,21.6,30.6z"/>
</svg>
