<?xml version="1.0" encoding="iso-8859-1"?>
<!-- Uploaded to: SVG Repo, www.svgrepo.com, Generator: SVG Repo Mixer Tools -->
<svg fill="#808080" height="800px" width="800px" version="1.1" id="Layer_1"
	xmlns="http://www.w3.org/2000/svg" xmlns:xlink="http://www.w3.org/1999/xlink"
	viewBox="0 0 512 512" xml:space="preserve">
<g>
	<g>
		<path d="M422.75,240.289c-2.432-1.57-5.504-1.801-8.149-0.589l-93.867,42.667c-3.046,1.382-5.001,4.412-5.001,7.765v42.667
			c0,2.901,1.476,5.598,3.917,7.177c1.399,0.896,3.004,1.357,4.617,1.357c1.203,0,2.406-0.247,3.533-0.768l93.867-42.667
			c3.046-1.382,5.001-4.412,5.001-7.765v-42.667C426.667,244.564,425.19,241.868,422.75,240.289z M409.6,284.645l-76.8,34.91
			v-23.927l76.8-34.91V284.645z"/>
	</g>
</g>
<g>
	<g>
		<path d="M506.957,111.683L259.49,0.75c-2.219-0.998-4.77-0.998-6.98,0L5.043,111.683C1.971,113.057,0,116.103,0,119.466v51.2
			c0,3.362,1.971,6.409,5.043,7.782l12.023,5.393v217.225c0,3.379,1.98,6.426,5.069,7.799l230.4,102.4
			c1.109,0.495,2.278,0.734,3.465,0.734c1.186,0,2.355-0.239,3.465-0.734l230.4-102.4c3.089-1.374,5.069-4.42,5.069-7.799V183.841
			l12.023-5.393c3.072-1.374,5.043-4.42,5.043-7.782v-51.2C512,116.103,510.029,113.057,506.957,111.683z M247.467,490.333
			L34.133,395.527V191.487l213.333,95.633V490.333z M247.467,268.423l-230.4-103.279v-32.503l230.4,103.279V268.423z M256,221.046
			L29.389,119.466L256,17.885l226.611,101.581L256,221.046z M477.867,395.527l-213.333,94.805V287.12l213.333-95.633V395.527z
			 M494.933,165.145l-230.4,103.279V235.92l230.4-103.279V165.145z"/>
	</g>
</g>
</svg>