<?xml version="1.0" encoding="iso-8859-1"?>
<!-- Uploaded to: SVG Repo, www.svgrepo.com, Generator: SVG Repo Mixer Tools -->
<svg fill="#808080" height="800px" width="800px" version="1.1" id="Layer_1" xmlns="http://www.w3.org/2000/svg" xmlns:xlink="http://www.w3.org/1999/xlink" 
	 viewBox="0 0 512 512" xml:space="preserve">
<g>
	<g>
		<path d="M509.162,120.493c-1.517-1.313-3.519-1.924-5.524-1.924H396.264c-3.146,0-6.023,1.777-7.431,4.593l-11.771,23.541
			c-0.092,0.184-0.363,0.157-0.417-0.041L350.03,49.074c-0.959-3.517-4.154-5.958-7.8-5.958H29.933
			c-1.782,0-3.566,0.465-5.007,1.511c-2.844,2.064-3.974,5.59-3.058,8.793l18.532,64.861c0.041,0.143-0.067,0.286-0.216,0.286H8.361
			c-2.006,0-4.009,0.611-5.524,1.924c-2.907,2.517-3.602,6.539-1.983,9.775l42.238,84.477c0.015,0.031,0.024,0.066,0.024,0.1
			v245.731c0,4.589,3.72,8.308,8.308,8.308h409.152c4.589,0,8.308-3.72,8.308-8.308v-245.73c0-0.034,0.009-0.069,0.024-0.1
			l42.238-84.477C512.764,127.031,512.069,123.011,509.162,120.493z M56.134,204.676l-34.807-69.615
			c-0.074-0.15,0.033-0.324,0.201-0.324h29.47c0.014,0,0.029,0,0.043,0h59.698c0.085,0,0.163,0.047,0.201,0.124l34.807,69.615
			c0.074,0.15-0.033,0.324-0.201,0.324H56.334C56.249,204.8,56.171,204.753,56.134,204.676z M150.904,452.492
			c0,0.124-0.1,0.224-0.224,0.224H59.508c-0.124,0-0.224-0.1-0.224-0.224V221.193c0-0.124,0.1-0.224,0.224-0.224h91.173
			c0.124,0,0.224,0.1,0.224,0.224V452.492z M452.491,452.716H167.297c-0.124,0-0.224-0.1-0.224-0.224V221.193
			c0-0.124,0.1-0.224,0.224-0.224h22.52c4.465,0,8.084-3.62,8.084-8.084s-3.62-8.084-8.084-8.084h-25.694
			c-0.085,0-0.163-0.047-0.201-0.124l-40.757-81.515c-1.408-2.814-4.285-4.593-7.431-4.593H57.466c-0.1,0-0.188-0.067-0.216-0.163
			L40.441,59.57c-0.041-0.143,0.066-0.286,0.216-0.286h295.229c0.101,0,0.19,0.068,0.217,0.165l29.832,109.384
			c0.014,0.053,0.009,0.11-0.016,0.159l-17.841,35.683c-0.038,0.077-0.115,0.124-0.201,0.124H225.462
			c-4.465,0-8.084,3.62-8.084,8.084c0,4.465,3.62,8.084,8.084,8.084h22.228c0.124,0,0.224,0.1,0.224,0.224v120.751
			c0,2.004,0.608,4.005,1.917,5.523c2.513,2.914,6.54,3.615,9.783,1.995l39.78-19.888c0.057-0.029,0.124-0.031,0.183-0.008
			l50.429,20.172c0.969,0.387,1.988,0.578,3.002,0.578c2.418,0,4.81-1.083,6.429-3.172c1.138-1.468,1.656-3.324,1.656-5.183V221.192
			c0-0.124,0.1-0.224,0.224-0.224h91.173c0.124,0,0.224,0.1,0.224,0.224v231.3h0.001
			C452.715,452.616,452.615,452.716,452.491,452.716z M344.925,221.193V329.96c0,0.158-0.161,0.267-0.307,0.208l-42.5-17
			c-0.966-0.386-1.984-0.578-3.003-0.578c-1.241,0-2.48,0.287-3.615,0.854l-31.092,15.546c-0.149,0.074-0.324-0.034-0.324-0.202
			V221.194c0-0.124,0.1-0.224,0.224-0.224h80.394C344.825,220.969,344.925,221.069,344.925,221.193z M490.672,135.062
			l-34.807,69.615c-0.038,0.076-0.115,0.124-0.201,0.124h-89.211c-0.167,0-0.275-0.176-0.201-0.324l34.807-69.615
			c0.038-0.077,0.115-0.124,0.2-0.124h89.211C490.638,134.737,490.746,134.913,490.672,135.062z"/>
	</g>
</g>
</svg>