<?xml version="1.0" encoding="utf-8"?>
<!-- Generator: Adobe Illustrator 25.3.1, SVG Export Plug-In . SVG Version: 6.00 Build 0)  -->
<svg version="1.1" id="Layer_1" xmlns="http://www.w3.org/2000/svg" xmlns:xlink="http://www.w3.org/1999/xlink" x="0px" y="0px"
	 viewBox="0 0 132 24" style="enable-background:new 0 0 132 24;" xml:space="preserve">
<style type="text/css">
	.st0{fill:#007AFF;}
	.st1{fill:#312ECB;}
</style>
<g>
	<path class="st0" d="M28.7,1.1H41l-9.1,13.3H19.7L28.7,1.1z"/>
	<path class="st1" d="M29.3,15.8l-3.5,5.1h12.8l9-13.3H38l-5.6,8.2H29.3z"/>
</g>
<path class="st0" d="M63.9,2.4v4.4h-3.4v11.3h-5V6.7h-3.1V2.4H63.9z"/>
<path class="st1" d="M78.9,18.1h-4.5l-0.5-1.8h-4l-0.5,1.8l-4.4,0l4.4-15.8h5.1L78.9,18.1z M73,12l-1.1-3.2l-1,3.2H73z"/>
<path class="st0" d="M91.8,15.3V23l-4.5-3.6c0-1,0-1.7-0.1-2.3c-0.1-0.6-0.2-1-0.4-1.4c-0.2-0.4-0.4-0.6-0.6-0.8l-1.9-1v4.2h-4.4
	V2.5h6.3c0.6,0,1.1,0.1,1.6,0.3c0.4,0.2,0.8,0.4,1.1,0.7c0.3,0.3,0.6,0.6,0.9,0.9c0.3,0.5,0.4,1.1,0.5,1.7s0.1,1.2,0.2,1.8
	c0,0.7,0,1.3-0.1,2c0,0.7-0.1,1.2-0.3,1.7c-0.2,0.5-0.4,0.8-0.7,1.1c-0.3,0.3-0.6,0.6-1,0.8L91.8,15.3z M86.1,9.9
	c0.1-0.1,0.2-0.3,0.3-0.6c0.1-0.3,0.1-0.6,0.1-1.1c0-0.3,0-0.5,0-0.7c0-0.2-0.1-0.4-0.2-0.5c-0.1-0.2-0.3-0.3-0.5-0.3h-1.4v3.4h1.3
	C85.8,10.2,85.9,10.1,86.1,9.9z"/>
<path class="st1" d="M103.7,14.4c-0.2,0.5-0.4,0.9-0.7,1.4c-0.3,0.4-0.7,0.8-1.1,1.2c-0.4,0.4-1,0.6-1.6,0.8
	c-0.6,0.2-1.3,0.3-2.2,0.3h-5.3V9.2c0-1.2,0.2-2.4,0.6-3.3c0.2-0.4,0.4-0.8,0.6-1.2c0.3-0.4,0.6-0.8,1-1.1c0.4-0.3,0.8-0.6,1.4-0.8
	s1.1-0.3,1.8-0.3h6.1v8.2C104.3,12.1,104.1,13.3,103.7,14.4z M99.7,6.8h-2.5V14h2.5V6.8z"/>
</svg>
